<svg width="24" height="24" viewBox="0 0 24 24" fill="none" xmlns="http://www.w3.org/2000/svg">
<path fill-rule="evenodd" clip-rule="evenodd" d="M5.00391 5.63174C5.48343 5.35773 6.09428 5.52433 6.36829 6.00385L8.36829 9.50385C8.6423 9.98337 8.47571 10.5942 7.99619 10.8682C7.51667 11.1422 6.90582 10.9756 6.63181 10.4961L4.63181 6.99613C4.3578 6.51661 4.52439 5.90575 5.00391 5.63174Z" fill="#B6B2FF"/>
<path fill-rule="evenodd" clip-rule="evenodd" d="M18.9962 5.63174C18.5166 5.35773 17.9058 5.52433 17.6318 6.00385L15.6318 9.50385C15.3578 9.98337 15.5244 10.5942 16.0039 10.8682C16.4834 11.1422 17.0942 10.9756 17.3683 10.4961L19.3683 6.99613C19.6423 6.51661 19.4757 5.90575 18.9962 5.63174Z" fill="#B6B2FF"/>
<path d="M12 8C6.81417 8 2.55031 11.9474 2.04924 17.0014C1.99475 17.551 2.44772 18 3 18H21C21.5523 18 22.0053 17.551 21.9508 17.0014C21.4497 11.9474 17.1858 8 12 8Z" fill="#6889FF"/>
<path d="M8 15C7.44772 15 7 14.5523 7 14C7 13.4477 7.44772 13 8 13C8.55228 13 9 13.4477 9 14C9 14.5523 8.55228 15 8 15Z" fill="#B6B2FF"/>
<path d="M16 15C15.4477 15 15 14.5523 15 14C15 13.4477 15.4477 13 16 13C16.5523 13 17 13.4477 17 14C17 14.5523 16.5523 15 16 15Z" fill="#B6B2FF"/>
</svg>
