<svg width="24" height="24" viewBox="0 0 24 24" fill="none" xmlns="http://www.w3.org/2000/svg">
<path fill-rule="evenodd" clip-rule="evenodd" d="M21 12C21 11.4477 20.5523 11 20 11L4.5 11C3.94772 11 3.5 11.4477 3.5 12C3.5 12.5523 3.94772 13 4.5 13L20 13C20.5523 13 21 12.5523 21 12Z" fill="#B6B2FF"/>
<path fill-rule="evenodd" clip-rule="evenodd" d="M10.7071 19.2071C11.0976 18.8166 11.0976 18.1834 10.7071 17.7929L4.91421 12L10.7071 6.20711C11.0976 5.81658 11.0976 5.18342 10.7071 4.79289C10.3166 4.40237 9.68342 4.40237 9.29289 4.79289L3.5 10.5858C2.71895 11.3668 2.71895 12.6332 3.5 13.4142L9.29289 19.2071C9.68342 19.5976 10.3166 19.5976 10.7071 19.2071Z" fill="#6889FF"/>
</svg>
