<svg width="24" height="24" viewBox="0 0 24 24" fill="none" xmlns="http://www.w3.org/2000/svg">
<path fill-rule="evenodd" clip-rule="evenodd" d="M12 21C12.5523 21 13 20.5523 13 20V4.5C13 3.94772 12.5523 3.5 12 3.5C11.4477 3.5 11 3.94772 11 4.5V20C11 20.5523 11.4477 21 12 21Z" fill="#B6B2FF"/>
<path fill-rule="evenodd" clip-rule="evenodd" d="M4.79289 10.7071C5.18342 11.0976 5.81658 11.0976 6.20711 10.7071L12 4.91421L17.7929 10.7071C18.1834 11.0976 18.8166 11.0976 19.2071 10.7071C19.5976 10.3166 19.5976 9.68342 19.2071 9.29289L13.4142 3.5C12.6332 2.71895 11.3668 2.71895 10.5858 3.5L4.79289 9.29289C4.40237 9.68342 4.40237 10.3166 4.79289 10.7071Z" fill="#6889FF"/>
</svg>
