<svg width="24" height="24" viewBox="0 0 24 24" fill="none" xmlns="http://www.w3.org/2000/svg">
<path fill-rule="evenodd" clip-rule="evenodd" d="M12.7071 4.12132C12.3166 3.7308 11.6834 3.7308 11.2929 4.12132L8.41424 7H15.5858L12.7071 4.12132ZM9.87871 2.70711C11.0503 1.53554 12.9498 1.53554 14.1213 2.70711L20.4142 9H3.58582L9.87871 2.70711Z" fill="#B6B2FF"/>
<path d="M2.16306 8.14142C2.077 7.53899 2.54446 7 3.15301 7H20.847C21.4555 7 21.923 7.53899 21.8369 8.14142L20.368 18.4243C20.1568 19.9022 18.8911 21 17.3981 21H6.60189C5.10894 21 3.84317 19.9022 3.63204 18.4243L2.16306 8.14142Z" fill="#6889FF"/>
<path fill-rule="evenodd" clip-rule="evenodd" d="M8 11C8.55228 11 9 11.4477 9 12V16C9 16.5523 8.55228 17 8 17C7.44772 17 7 16.5523 7 16V12C7 11.4477 7.44772 11 8 11Z" fill="#B6B2FF"/>
<path fill-rule="evenodd" clip-rule="evenodd" d="M12 11C12.5523 11 13 11.4477 13 12V16C13 16.5523 12.5523 17 12 17C11.4477 17 11 16.5523 11 16V12C11 11.4477 11.4477 11 12 11Z" fill="#B6B2FF"/>
<path fill-rule="evenodd" clip-rule="evenodd" d="M16 11C16.5523 11 17 11.4477 17 12V16C17 16.5523 16.5523 17 16 17C15.4477 17 15 16.5523 15 16V12C15 11.4477 15.4477 11 16 11Z" fill="#B6B2FF"/>
</svg>
