<svg width="24" height="24" viewBox="0 0 24 24" fill="none" xmlns="http://www.w3.org/2000/svg">
<path fill-rule="evenodd" clip-rule="evenodd" d="M9.99996 8.5841V9.60789L6.57798 7.18399C6.1273 6.86476 5.50316 6.97132 5.18393 7.42199C4.8647 7.87267 4.97126 8.49681 5.42194 8.81604L9.91697 12L5.42194 15.184C4.97126 15.5032 4.8647 16.1274 5.18393 16.578C5.50316 17.0287 6.1273 17.1353 6.57798 16.816L9.99996 14.3921V20.0842C9.99996 21.2709 11.3128 21.9877 12.3111 21.3459L17.2947 18.1422C17.8059 17.8136 18.1051 17.3079 18.1888 16.7729L13.5101 12.0943L13.3771 12L13.3998 11.9839L9.99996 8.5841ZM12 19.1683V13.4755L16.2132 16.4598L12 19.1683Z" fill="#B6B2FF"/>
<path d="M15.0555 10.8112L17.3692 9.17223C18.5257 8.35307 18.4868 6.62419 17.2947 5.85783L12.3111 2.65408C11.3128 2.01233 9.99996 2.7291 9.99996 3.91584V5.75567L12 7.75567V4.83168L16.2132 7.54018L13.6208 9.37648L15.0555 10.8112Z" fill="#B6B2FF"/>
<path fill-rule="evenodd" clip-rule="evenodd" d="M2.29289 2.29289C2.68342 1.90237 3.31658 1.90237 3.70711 2.29289L21.7071 20.2929C22.0976 20.6834 22.0976 21.3166 21.7071 21.7071C21.3166 22.0976 20.6834 22.0976 20.2929 21.7071L2.29289 3.70711C1.90237 3.31658 1.90237 2.68342 2.29289 2.29289Z" fill="#6889FF"/>
</svg>
