<svg width="24" height="24" viewBox="0 0 24 24" fill="none" xmlns="http://www.w3.org/2000/svg">
<path d="M2 7C2 5.34315 3.34315 4 5 4H7L7.17082 3.65836C7.679 2.64201 8.71779 2 9.8541 2H14.1459C15.2822 2 16.321 2.64201 16.8292 3.65836L17 4H19C20.6569 4 22 5.34315 22 7V17C22 18.6569 20.6569 20 19 20H5C3.34315 20 2 18.6569 2 17V7Z" fill="#6889FF"/>
<path fill-rule="evenodd" clip-rule="evenodd" d="M12 16C14.2091 16 16 14.2091 16 12C16 9.79086 14.2091 8 12 8C9.79086 8 8 9.79086 8 12C8 14.2091 9.79086 16 12 16Z" fill="#B6B2FF"/>
<circle cx="18" cy="8" r="1" fill="#B6B2FF"/>
</svg>
