<svg width="24" height="24" viewBox="0 0 24 24" fill="none" xmlns="http://www.w3.org/2000/svg">
<path fill-rule="evenodd" clip-rule="evenodd" d="M16.7071 7.29289C17.0976 7.68342 17.0976 8.31658 16.7071 8.70711L9.12132 16.2929C7.94975 17.4645 6.05025 17.4645 4.87868 16.2929L2.29289 13.7071C1.90237 13.3166 1.90237 12.6834 2.29289 12.2929C2.68342 11.9024 3.31658 11.9024 3.70711 12.2929L6.29289 14.8787C6.68342 15.2692 7.31658 15.2692 7.70711 14.8787L15.2929 7.29289C15.6834 6.90237 16.3166 6.90237 16.7071 7.29289Z" fill="#B6B2FF"/>
<path fill-rule="evenodd" clip-rule="evenodd" d="M21.7071 7.24291C22.0976 7.63343 22.0976 8.26659 21.7071 8.65712L14.0713 16.2929C12.8998 17.4645 11.0003 17.4645 9.82869 16.2929L7.24291 13.7071C6.85238 13.3166 6.85238 12.6834 7.24291 12.2929C7.63343 11.9024 8.26659 11.9024 8.65712 12.2929L11.2429 14.8787C11.6334 15.2692 12.2666 15.2692 12.6571 14.8787L20.2929 7.24291C20.6834 6.85238 21.3166 6.85238 21.7071 7.24291Z" fill="#6889FF"/>
</svg>
