<svg width="24" height="24" viewBox="0 0 24 24" fill="none" xmlns="http://www.w3.org/2000/svg">
<path fill-rule="evenodd" clip-rule="evenodd" d="M22 10C22 13.866 18.866 17 15 17H7C4.23858 17 2 14.7614 2 12C2 9.23858 4.23858 7 7 7C7.54527 7 8.07015 7.08728 8.56143 7.24864C9.63037 4.75042 12.1108 3 15 3C18.866 3 22 6.13401 22 10Z" fill="#6889FF"/>
<path d="M9.70711 15.7071C9.31658 16.0976 8.68342 16.0976 8.29289 15.7071C7.90237 15.3166 7.90237 14.6834 8.29289 14.2929L11.2929 11.2929C11.4874 11.0984 11.7421 11.0008 11.997 11L12 11L12.003 11C12.1375 11.0004 12.2657 11.0273 12.3828 11.0759C12.5007 11.1247 12.6112 11.197 12.7071 11.2929L15.7071 14.2929C16.0976 14.6834 16.0976 15.3166 15.7071 15.7071C15.3166 16.0976 14.6834 16.0976 14.2929 15.7071L13 14.4142V20C13 20.5523 12.5523 21 12 21C11.4477 21 11 20.5523 11 20V14.4142L9.70711 15.7071Z" fill="#B6B2FF"/>
</svg>
