<svg width="24" height="24" viewBox="0 0 24 24" fill="none" xmlns="http://www.w3.org/2000/svg">
<circle cx="12" cy="12" r="3" fill="#B6B2FF"/>
<path fill-rule="evenodd" clip-rule="evenodd" d="M13 3C13 2.44772 12.5523 2 12 2C11.4477 2 11 2.44772 11 3V4.06189C7.38128 4.51314 4.51314 7.38128 4.06189 11H3C2.44772 11 2 11.4477 2 12C2 12.5523 2.44772 13 3 13H4.06189C4.51314 16.6187 7.38128 19.4869 11 19.9381V21C11 21.5523 11.4477 22 12 22C12.5523 22 13 21.5523 13 21V19.9381C16.6187 19.4869 19.4869 16.6187 19.9381 13H21C21.5523 13 22 12.5523 22 12C22 11.4477 21.5523 11 21 11H19.9381C19.4869 7.38128 16.6187 4.51314 13 4.06189V3ZM18 12C18 8.68629 15.3137 6 12 6C8.68629 6 6 8.68629 6 12C6 15.3137 8.68629 18 12 18C15.3137 18 18 15.3137 18 12Z" fill="#6889FF"/>
</svg>
