<svg width="24" height="24" viewBox="0 0 24 24" fill="none" xmlns="http://www.w3.org/2000/svg">
<path d="M2.80757 9.87864C1.636 8.70707 1.636 6.80757 2.80757 5.636L5.636 2.80757C6.80757 1.636 8.70707 1.636 9.87864 2.80757L21.1924 14.1213C22.3639 15.2929 22.3639 17.1923 21.1924 18.3639L18.3639 21.1924C17.1923 22.3639 15.2929 22.3639 14.1213 21.1924L2.80757 9.87864Z" fill="#B6B2FF"/>
<path d="M15.4202 2.9645C16.5917 1.79292 18.4912 1.79292 19.6628 2.96449L21.077 4.37871C22.2486 5.55028 22.2486 7.44977 21.077 8.62134L9.32766 20.3708C9.04846 20.65 8.69286 20.8403 8.30567 20.9178L3.29927 21.9191C2.59955 22.059 1.98263 21.4421 2.12258 20.7424L3.12386 15.7359C3.20129 15.3488 3.3916 14.9932 3.6708 14.714L15.4202 2.9645Z" fill="#6889FF"/>
</svg>
