<svg width="24" height="24" viewBox="0 0 24 24" fill="none" xmlns="http://www.w3.org/2000/svg">
<path d="M18.2725 8.94348C19.3752 10.319 20.0348 12.0651 20.0348 13.9652C20.0348 18.4027 16.4375 22 12 22C7.5625 22 3.96521 18.4027 3.96521 13.9652C3.96521 12.0651 4.62478 10.319 5.72747 8.94348L5.73397 8.93538C5.73397 8.93538 8.52282 5.20153 10.6792 2.56137C11.3689 1.71688 12.6313 1.71655 13.3215 2.56071C15.4847 5.20669 18.2772 8.94348 18.2772 8.94348H18.2725Z" fill="#6889FF"/>
<path fill-rule="evenodd" clip-rule="evenodd" d="M6.90106 14.02C7.4423 13.9101 7.97013 14.2598 8.08 14.8011C8.39779 16.3666 9.63336 17.6022 11.1989 17.92C11.7401 18.0298 12.0899 18.5577 11.98 19.0989C11.8701 19.6402 11.3423 19.9899 10.801 19.88C8.44832 19.4024 6.59755 17.5517 6.11998 15.1989C6.01011 14.6577 6.35981 14.1299 6.90106 14.02Z" fill="#B6B2FF"/>
</svg>
