<svg width="24" height="24" viewBox="0 0 24 24" fill="none" xmlns="http://www.w3.org/2000/svg">
<rect x="2" y="4" width="20" height="18" rx="3" fill="#6889FF"/>
<path fill-rule="evenodd" clip-rule="evenodd" d="M7 2C7.55228 2 8 2.44772 8 3V7C8 7.55228 7.55228 8 7 8C6.44772 8 6 7.55228 6 7V3C6 2.44772 6.44772 2 7 2Z" fill="#B6B2FF"/>
<path fill-rule="evenodd" clip-rule="evenodd" d="M17 2C17.5523 2 18 2.44772 18 3V7C18 7.55228 17.5523 8 17 8C16.4477 8 16 7.55228 16 7V3C16 2.44772 16.4477 2 17 2Z" fill="#B6B2FF"/>
<path fill-rule="evenodd" clip-rule="evenodd" d="M16.7071 10.2929C17.0976 10.6834 17.0976 11.3166 16.7071 11.7071L11.7071 16.7071C11.3166 17.0976 10.6834 17.0976 10.2929 16.7071L7.79289 14.2071C7.40237 13.8166 7.40237 13.1834 7.79289 12.7929C8.18342 12.4024 8.81658 12.4024 9.20711 12.7929L11 14.5858L15.2929 10.2929C15.6834 9.90237 16.3166 9.90237 16.7071 10.2929Z" fill="#B6B2FF"/>
</svg>
