<svg width="24" height="24" viewBox="0 0 24 24" fill="none" xmlns="http://www.w3.org/2000/svg">
<rect x="2" y="4" width="20" height="18" rx="3" fill="#6889FF"/>
<path fill-rule="evenodd" clip-rule="evenodd" d="M7 2C7.55228 2 8 2.44772 8 3V7C8 7.55228 7.55228 8 7 8C6.44772 8 6 7.55228 6 7V3C6 2.44772 6.44772 2 7 2Z" fill="#B6B2FF"/>
<path fill-rule="evenodd" clip-rule="evenodd" d="M17 2C17.5523 2 18 2.44772 18 3V7C18 7.55228 17.5523 8 17 8C16.4477 8 16 7.55228 16 7V3C16 2.44772 16.4477 2 17 2Z" fill="#B6B2FF"/>
<path d="M13 10C13 9.44772 12.5523 9 12 9C11.4477 9 11 9.44772 11 10L11 12H9C8.44772 12 8 12.4477 8 13C8 13.5523 8.44772 14 9 14H11L11 16C11 16.5523 11.4477 17 12 17C12.5523 17 13 16.5523 13 16L13 14H15C15.5523 14 16 13.5523 16 13C16 12.4477 15.5523 12 15 12H13L13 10Z" fill="#B6B2FF"/>
</svg>
