<svg width="24" height="24" viewBox="0 0 24 24" fill="none" xmlns="http://www.w3.org/2000/svg">
<path d="M12 22C16.2526 22 20 19 20 15C20 11 17 9 16 8C14.5939 6.5939 14.1521 4.74612 14.0254 3.4746C13.9552 2.77067 13.2759 2.27145 12.6864 2.66243C11.5335 3.42702 9.90375 4.98749 9 8C8.35747 10.1418 9 12 9 12C9 12 8 11.5 7.5 10C7.3353 9.5059 7.11635 8.90329 6.89675 8.31727C6.58071 7.47387 5.44066 7.48134 5.1629 8.33811C4.61497 10.0282 4 12.3031 4 14C4 19 7.74745 22 12 22Z" fill="#6889FF"/>
<path d="M10.9999 18C13.4744 18 16.214 16.4557 16.8622 14.0924C16.9996 13.5912 17.7034 13.3597 17.8434 13.8603C17.9458 14.2264 18 14.6079 18 15C18 17.7614 15.3137 20 12 20C9.8621 20 7.98537 19.0682 6.92269 17.6654C6.60883 17.2511 7.16869 16.8749 7.62042 17.132C8.58285 17.6797 9.74646 18 10.9999 18Z" fill="#B6B2FF"/>
</svg>
