<svg width="24" height="24" viewBox="0 0 24 24" fill="none" xmlns="http://www.w3.org/2000/svg">
<path d="M5 21H19C20.6569 21 22 19.6569 22 18V8C22 6.34315 20.6569 5 19 5H11L9.87868 3.87868C9.31607 3.31607 8.55301 3 7.75736 3H5C3.34315 3 2 4.34315 2 6V18C2 19.6569 3.34315 21 5 21Z" fill="#6889FF"/>
<path d="M13 10C13 9.44772 12.5523 9 12 9C11.4477 9 11 9.44772 11 10L11 12H9C8.44772 12 8 12.4477 8 13C8 13.5523 8.44772 14 9 14H11L11 16C11 16.5523 11.4477 17 12 17C12.5523 17 13 16.5523 13 16L13 14H15C15.5523 14 16 13.5523 16 13C16 12.4477 15.5523 12 15 12H13L13 10Z" fill="#B6B2FF"/>
</svg>
