<svg width="24" height="24" viewBox="0 0 24 24" fill="none" xmlns="http://www.w3.org/2000/svg">
<path d="M3 12.874V19C3 20.6569 4.34315 22 6 22H18C19.6569 22 21 20.6569 21 19V12.874C20.6804 12.9563 20.3453 13 20 13H4C3.6547 13 3.31962 12.9563 3 12.874Z" fill="#6889FF"/>
<path d="M2 8C2 6.89543 2.89543 6 4 6H20C21.1046 6 22 6.89543 22 8V9C22 10.1046 21.1046 11 20 11H4C2.89543 11 2 10.1046 2 9V8Z" fill="#6889FF"/>
<path fill-rule="evenodd" clip-rule="evenodd" d="M12 3.5L10.8111 2.01391C10.2984 1.37306 9.52225 1 8.70156 1H8.5C7.11929 1 6 2.11929 6 3.5C6 4.88071 7.11929 6 8.5 6H11V22H13V6H15.5C16.8807 6 18 4.88071 18 3.5C18 2.11929 16.8807 1 15.5 1H15.2984C14.4777 1 13.7016 1.37306 13.1889 2.01391L12 3.5ZM9.83875 4L9.24939 3.2633C9.11625 3.09688 8.91468 3 8.70156 3H8.5C8.22386 3 8 3.22386 8 3.5C8 3.77614 8.22386 4 8.5 4H9.83875ZM14.1612 4L14.7506 3.2633C14.8837 3.09688 15.0853 3 15.2984 3H15.5C15.7761 3 16 3.22386 16 3.5C16 3.77614 15.7761 4 15.5 4H14.1612Z" fill="#B6B2FF"/>
</svg>
