<svg width="24" height="24" viewBox="0 0 24 24" fill="none" xmlns="http://www.w3.org/2000/svg">
<path fill-rule="evenodd" clip-rule="evenodd" d="M12 22C17.5228 22 22 17.5228 22 12C22 6.47715 17.5228 2 12 2C6.47715 2 2 6.47715 2 12C2 17.5228 6.47715 22 12 22Z" fill="#6889FF"/>
<path fill-rule="evenodd" clip-rule="evenodd" d="M12 22C14.0503 22 15.8124 19.5318 16.5839 16H21.1679C21.4453 15.365 21.6587 14.6956 21.7999 14H16.9C16.9655 13.3538 17 12.6849 17 12C17 11.3151 16.9655 10.6462 16.9 10H21.7999C21.6587 9.30439 21.4453 8.635 21.1679 8H16.5839C15.8124 4.46819 14.0503 2 12 2C9.94966 2 8.18758 4.46819 7.41602 8H2.83206C2.55462 8.635 2.34121 9.30439 2.20001 10H7.09999C7.03441 10.6462 6.99998 11.3151 6.99998 12C6.99998 12.6849 7.03441 13.3538 7.09999 14H2.20001C2.34121 14.6956 2.55462 15.365 2.83206 16H7.41602C8.18758 19.5318 9.94966 22 12 22ZM14.5298 16C14.3212 16.8293 14.0532 17.5635 13.7467 18.1766C12.9481 19.7737 12.215 20 12 20C11.7849 20 11.0518 19.7737 10.2533 18.1766C9.94674 17.5635 9.67878 16.8293 9.47017 16H14.5298ZM13.7467 5.82336C14.0532 6.43647 14.3212 7.17074 14.5298 8H9.47017C9.67878 7.17074 9.94674 6.43647 10.2533 5.82336C11.0518 4.22632 11.7849 4 12 4C12.215 4 12.9481 4.22632 13.7467 5.82336ZM15 12C15 11.3051 14.9608 10.6359 14.8885 10H9.11143C9.03916 10.6359 8.99998 11.3051 8.99998 12C8.99998 12.6949 9.03916 13.3641 9.11143 14H14.8885C14.9608 13.3641 15 12.6949 15 12Z" fill="#B6B2FF"/>
</svg>
