<svg width="24" height="24" viewBox="0 0 24 24" fill="none" xmlns="http://www.w3.org/2000/svg">
<path fill-rule="evenodd" clip-rule="evenodd" d="M6.5 20C6.5 19.4477 6.94772 19 7.5 19H13C13.5523 19 14 19.4477 14 20C14 20.5523 13.5523 21 13 21H7.5C6.94772 21 6.5 20.5523 6.5 20Z" fill="#B6B2FF"/>
<path fill-rule="evenodd" clip-rule="evenodd" d="M10 4C10 3.44772 10.4477 3 11 3H16.5C17.0523 3 17.5 3.44772 17.5 4C17.5 4.55228 17.0523 5 16.5 5H11C10.4477 5 10 4.55228 10 4Z" fill="#B6B2FF"/>
<path d="M14.7808 5H12.7192L9.21924 19H11.2808L14.7808 5Z" fill="#6889FF"/>
<path d="M14.0213 3C14.0066 2.99967 13.9919 2.99968 13.9772 3H14.0213Z" fill="#6889FF"/>
<path d="M10.0221 21H9.97945C9.9937 21.0003 10.0079 21.0003 10.0221 21Z" fill="#6889FF"/>
</svg>
