<svg width="24" height="24" viewBox="0 0 24 24" fill="none" xmlns="http://www.w3.org/2000/svg">
<path d="M16.2969 10.5547L20.9635 3.5547C21.4066 2.89015 20.9302 2 20.1315 2H16.0704C15.4017 2 14.7772 2.3342 14.4063 2.8906L10.0365 9.4453C9.59343 10.1099 10.0698 11 10.8685 11H15.4648C15.7992 11 16.1114 10.8329 16.2969 10.5547Z" fill="#B6B2FF"/>
<path d="M7.70313 10.5547L3.03647 3.5547C2.59343 2.89015 3.06982 2 3.86852 2H7.92963C8.59834 2 9.2228 2.3342 9.59373 2.8906L13.9635 9.4453C14.4066 10.1099 13.9302 11 13.1315 11H8.53518C8.20083 11 7.8886 10.8329 7.70313 10.5547Z" fill="#B6B2FF"/>
<path fill-rule="evenodd" clip-rule="evenodd" d="M12 22C15.866 22 19 18.866 19 15C19 11.134 15.866 8 12 8C8.13401 8 5 11.134 5 15C5 18.866 8.13401 22 12 22Z" fill="#6889FF"/>
<path fill-rule="evenodd" clip-rule="evenodd" d="M12 18C13.6569 18 15 16.6569 15 15C15 13.3431 13.6569 12 12 12C10.3431 12 9 13.3431 9 15C9 16.6569 10.3431 18 12 18Z" fill="#B6B2FF"/>
</svg>
