<svg width="24" height="24" viewBox="0 0 24 24" fill="none" xmlns="http://www.w3.org/2000/svg">
<path d="M13.9458 2.3444C12.8245 1.38886 11.1754 1.38886 10.0541 2.3444L8.78264 3.42794C8.62248 3.56443 8.42334 3.64692 8.21357 3.66366L6.54833 3.79654C5.0798 3.91373 3.91367 5.07986 3.79648 6.54839L3.66359 8.21363C3.64686 8.4234 3.56437 8.62254 3.42788 8.7827L2.34434 10.0542C1.3888 11.1754 1.3888 12.8246 2.34434 13.9459L3.42788 15.2173C3.56437 15.3775 3.64686 15.5766 3.66359 15.7864L3.79648 17.4517C3.91367 18.9202 5.0798 20.0863 6.54833 20.2035L8.21357 20.3364C8.42334 20.3531 8.62248 20.4356 8.78264 20.5721L10.0541 21.6556C11.1754 22.6112 12.8245 22.6112 13.9458 21.6556L15.2173 20.5721C15.3774 20.4356 15.5766 20.3531 15.7863 20.3364L17.4516 20.2035C18.9201 20.0863 20.0863 18.9202 20.2034 17.4517L20.3363 15.7864C20.3531 15.5766 20.4356 15.3775 20.572 15.2173L21.6556 13.9459C22.6111 12.8246 22.6111 11.1754 21.6556 10.0542L20.572 8.7827C20.4356 8.62254 20.3531 8.4234 20.3363 8.21363L20.2034 6.54839C20.0863 5.07986 18.9201 3.91373 17.4516 3.79654L15.7863 3.66366C15.5766 3.64692 15.3774 3.56443 15.2173 3.42794L13.9458 2.3444Z" fill="#6889FF"/>
</svg>
