<svg width="24" height="24" viewBox="0 0 24 24" fill="none" xmlns="http://www.w3.org/2000/svg">
<circle cx="12" cy="18" r="4" fill="#B6B2FF"/>
<path d="M22 16.5858C22 16.9141 21.8881 17.2163 21.7004 17.4563L7.5923 3.34813C8.86046 2.49678 10.3867 2 12.0293 2C16.4314 2 20 5.56859 20 9.97067L20 13.1716C20 13.702 20.2107 14.2107 20.5858 14.5858L21.5858 15.5858C21.851 15.851 22 16.2107 22 16.5858Z" fill="#6889FF"/>
<path d="M6.08015 4.66593L6.08087 4.66512L19.4157 18H19.4142L21.7071 20.2929C22.0976 20.6834 22.0976 21.3166 21.7071 21.7071C21.3166 22.0976 20.6834 22.0976 20.2929 21.7071L16.5858 18H3.40408C2.62863 18 2 17.3714 2 16.5959C2 16.2151 2.15471 15.8506 2.42864 15.586L3.45759 14.5922C3.84928 14.2139 4.06977 13.6922 4.06814 13.1476L4.05867 9.9946C4.05473 8.67981 4.3693 7.43859 4.92966 6.34388L2.29289 3.70711C1.90237 3.31658 1.90237 2.68342 2.29289 2.29289C2.68342 1.90237 3.31658 1.90237 3.70711 2.29289L6.08015 4.66593Z" fill="#6889FF"/>
</svg>
