<svg width="24" height="24" viewBox="0 0 24 24" fill="none" xmlns="http://www.w3.org/2000/svg">
<g clip-path="url(#clip0_32_37523)">
<path d="M2.89996 10.489C1.44046 7.83826 2.74822 4.82598 5.28873 3.18212C6.32355 2.51253 7.70098 2.76584 8.42987 3.75979L9.9375 5.81565C10.6026 6.72262 10.7046 7.92542 10.2016 8.93138L9.79184 9.75084C9.67323 9.98805 9.65448 10.2625 9.77581 10.4983C9.99686 10.928 10.4676 11.6894 11.3744 12.5962C12.2812 13.503 13.0426 13.9737 13.4723 14.1948C13.7081 14.3161 13.9825 14.2973 14.2197 14.1787L15.0392 13.769C16.0451 13.266 17.2479 13.3679 18.1549 14.0331L20.2108 15.5407C21.2047 16.2696 21.458 17.647 20.7884 18.6818C19.1446 21.2223 16.1323 22.5301 13.4816 21.0706C11.7516 20.1181 9.67124 18.6712 7.48528 16.4853C5.29932 14.2993 3.85249 12.219 2.89996 10.489Z" fill="#6889FF"/>
<path d="M20.2071 5.20711C20.5976 4.81658 20.5976 4.18342 20.2071 3.79289C19.8166 3.40237 19.1834 3.40237 18.7929 3.79289L16 6.58579V6C16 5.44772 15.5523 5 15 5C14.4477 5 14 5.44772 14 6V8.5C14 9.32843 14.6716 10 15.5 10H18C18.5523 10 19 9.55228 19 9C19 8.44772 18.5523 8 18 8H17.4142L20.2071 5.20711Z" fill="#B6B2FF"/>
</g>
<defs>
<clipPath id="clip0_32_37523">
<rect width="24" height="24" fill="white"/>
</clipPath>
</defs>
</svg>
