<svg width="24" height="24" viewBox="0 0 24 24" fill="none" xmlns="http://www.w3.org/2000/svg">
<path fill-rule="evenodd" clip-rule="evenodd" d="M12 4C7.58172 4 4 7.58172 4 12C4 16.4183 7.58172 20 12 20C15.1315 20 17.7905 18.1991 19.1045 15.555C19.3503 15.0604 19.9505 14.8587 20.445 15.1045C20.9396 15.3503 21.1413 15.9505 20.8955 16.445C19.2641 19.7278 15.9359 22 12 22C6.47715 22 2 17.5228 2 12C2 6.47715 6.47715 2 12 2C15.9359 2 19.2641 4.27225 20.8955 7.55497C21.1413 8.04955 20.9396 8.64973 20.445 8.89551C19.9505 9.1413 19.3503 8.93961 19.1045 8.44503C17.7905 5.80088 15.1315 4 12 4Z" fill="#B6B2FF"/>
<path fill-rule="evenodd" clip-rule="evenodd" d="M20.5 3C21.0523 3 21.5 3.44771 21.5 4L21.5 8C21.5 8.26572 21.3942 8.52052 21.2061 8.70814C21.0179 8.89576 20.7628 9.00077 20.4971 9L16.4971 8.98828C15.9448 8.98666 15.4984 8.53763 15.5 7.98535C15.5016 7.43307 15.9506 6.98667 16.5029 6.98829L19.5 6.99707L19.5 4C19.5 3.44772 19.9477 3 20.5 3Z" fill="#6889FF"/>
</svg>
