<svg width="24" height="24" viewBox="0 0 24 24" fill="none" xmlns="http://www.w3.org/2000/svg">
<path d="M7 12H8.1802C8.65688 12 9.06729 12.3365 9.16078 12.8039L10 17L5.5547 19.9635C4.89015 20.4066 4 19.9302 4 19.1315V15C4 13.3431 5.34315 12 7 12Z" fill="#B6B2FF"/>
<path d="M17 12H15.8198C15.3431 12 14.9327 12.3365 14.8392 12.8039L14 17L18.4453 19.9635C19.1099 20.4066 20 19.9302 20 19.1315V15C20 13.3431 18.6569 12 17 12Z" fill="#B6B2FF"/>
<path d="M13.166 20H10.834C10.3603 20 9.94759 20.338 9.98729 20.81C10.0498 21.5534 10.4005 22.5925 11.8042 22.9553C11.932 22.9883 12.068 22.9883 12.1958 22.9553C13.5995 22.5925 13.9502 21.5534 14.0127 20.81C14.0524 20.338 13.6396 20 13.166 20Z" fill="#B6B2FF"/>
<path d="M7.00001 8C7.74986 5.75067 10.1861 3.22024 11.3584 2.09474C11.7198 1.74777 12.2803 1.74777 12.6417 2.09474C13.814 3.22024 16.2502 5.75066 17 8C17.7733 10.3198 16.8307 14.4868 16.1286 16.9724C15.7825 18.198 14.6477 19 13.3741 19H10.6173C9.34788 19 8.21584 18.2032 7.86786 16.9824C7.1623 14.5072 6.21622 10.3511 7.00001 8Z" fill="#6889FF"/>
<circle cx="12" cy="10" r="2" fill="#B6B2FF"/>
</svg>
