<svg width="24" height="24" viewBox="0 0 24 24" fill="none" xmlns="http://www.w3.org/2000/svg">
<circle cx="12" cy="12" r="10" fill="#6889FF"/>
<path fill-rule="evenodd" clip-rule="evenodd" d="M7.01565 16.9164C7.52174 17.1375 8.11126 16.9065 8.33238 16.4004C8.95054 14.9856 10.3613 14 12 14C13.6387 14 15.0494 14.9856 15.6676 16.4004C15.8887 16.9065 16.4782 17.1375 16.9843 16.9164C17.4904 16.6952 17.7214 16.1057 17.5003 15.5996C16.5753 13.4826 14.4619 12 12 12C9.53804 12 7.42463 13.4826 6.49967 15.5996C6.27855 16.1057 6.50957 16.6952 7.01565 16.9164Z" fill="#B6B2FF"/>
<circle cx="8" cy="9" r="1" fill="#B6B2FF"/>
<circle cx="16" cy="9" r="1" fill="#B6B2FF"/>
</svg>
