<svg width="24" height="24" viewBox="0 0 24 24" fill="none" xmlns="http://www.w3.org/2000/svg">
<path d="M2 5C2 3.34315 3.34315 2 5 2H15.7574C16.553 2 17.3161 2.31607 17.8787 2.87868L21.1213 6.12132C21.6839 6.68393 22 7.44699 22 8.24264V19C22 20.6569 20.6569 22 19 22H5C3.34315 22 2 20.6569 2 19V5Z" fill="#6889FF"/>
<path d="M6 16C6 14.8954 6.89543 14 8 14H16C17.1046 14 18 14.8954 18 16V22H6V16Z" fill="#B6B2FF"/>
<path d="M15.7574 2H7V6C7 7.10457 7.89543 8 9 8H15C16.1046 8 17 7.10457 17 6V2.26946C16.6135 2.09355 16.1902 2 15.7574 2Z" fill="#B6B2FF"/>
</svg>
