<svg width="24" height="24" viewBox="0 0 24 24" fill="none" xmlns="http://www.w3.org/2000/svg">
<path fill-rule="evenodd" clip-rule="evenodd" d="M17.415 2.79071C17.8933 3.06685 18.0572 3.67844 17.781 4.15674L9.03105 19.3122C8.75491 19.7905 8.14332 19.9543 7.66502 19.6782C7.18673 19.4021 7.02286 18.7905 7.299 18.3122L16.049 3.15674C16.3251 2.67844 16.9367 2.51457 17.415 2.79071Z" fill="#B6B2FF"/>
<path fill-rule="evenodd" clip-rule="evenodd" d="M5.24997 18.8612C5.96741 19.2754 6.8848 19.0296 7.29901 18.3122C7.71323 17.5947 7.46741 16.6773 6.74997 16.2631C6.03254 15.8489 5.11515 16.0947 4.70094 16.8122C4.28672 17.5296 4.53254 18.447 5.24997 18.8612ZM4.24997 20.5932C5.924 21.5597 8.06456 20.9862 9.03106 19.3122C9.99756 17.6381 9.424 15.4976 7.74997 14.5311C6.07595 13.5646 3.93538 14.1381 2.96889 15.8122C2.00239 17.4862 2.57595 19.6267 4.24997 20.5932Z" fill="#6889FF"/>
<path fill-rule="evenodd" clip-rule="evenodd" d="M6.58494 2.79071C6.10665 3.06685 5.94278 3.67844 6.21892 4.15674L14.9689 19.3122C15.2451 19.7905 15.8567 19.9543 16.3349 19.6782C16.8132 19.4021 16.9771 18.7905 16.701 18.3122L7.95097 3.15674C7.67483 2.67844 7.06324 2.51457 6.58494 2.79071Z" fill="#B6B2FF"/>
<path fill-rule="evenodd" clip-rule="evenodd" d="M18.75 18.8612C18.0325 19.2754 17.1151 19.0296 16.7009 18.3122C16.2867 17.5947 16.5325 16.6773 17.25 16.2631C17.9674 15.8489 18.8848 16.0947 19.299 16.8122C19.7132 17.5296 19.4674 18.447 18.75 18.8612ZM19.75 20.5932C18.076 21.5597 15.9354 20.9862 14.9689 19.3122C14.0024 17.6381 14.5759 15.4976 16.25 14.5311C17.924 13.5646 20.0646 14.1381 21.0311 15.8122C21.9976 17.4862 21.424 19.6267 19.75 20.5932Z" fill="#6889FF"/>
</svg>
