<svg width="24" height="24" viewBox="0 0 24 24" fill="none" xmlns="http://www.w3.org/2000/svg">
<path fill-rule="evenodd" clip-rule="evenodd" d="M13 3C13 2.44772 12.5523 2 12 2C11.4477 2 11 2.44772 11 3V4H10C8.34315 4 7 5.34315 7 7V8H17V7C17 5.34315 15.6569 4 14 4H13V3Z" fill="#6889FF"/>
<path d="M4 15V11C4 9.34315 5.34315 8 7 8H17C18.6569 8 20 9.34315 20 11V15H4Z" fill="#B6B2FF"/>
<path fill-rule="evenodd" clip-rule="evenodd" d="M2.65833 21.4472C3.50292 21.8695 4.49703 21.8695 5.34162 21.4472L5.55276 21.3416C5.83429 21.2009 6.16566 21.2009 6.44719 21.3416L6.65833 21.4472C7.50292 21.8695 8.49703 21.8695 9.34162 21.4472L9.55276 21.3416C9.83429 21.2009 10.1657 21.2009 10.4472 21.3416L10.6583 21.4472C11.5029 21.8695 12.497 21.8695 13.3416 21.4472L13.5528 21.3416C13.8343 21.2009 14.1657 21.2009 14.4472 21.3416L14.6583 21.4472C15.5029 21.8695 16.497 21.8695 17.3416 21.4472L17.5528 21.3416C17.8343 21.2009 18.1657 21.2009 18.4472 21.3416L18.6583 21.4472C19.5029 21.8695 20.497 21.8695 21.3416 21.4472L21.4472 21.3944C21.9412 21.1474 22.1414 20.5467 21.8944 20.0528C21.6474 19.5588 21.0467 19.3586 20.5528 19.6056L20.4472 19.6583C20.1657 19.7991 19.8343 19.7991 19.5528 19.6583L19.3416 19.5528C18.497 19.1305 17.5029 19.1305 16.6583 19.5528L16.4472 19.6583C16.1657 19.7991 15.8343 19.7991 15.5528 19.6583L15.3416 19.5528C14.497 19.1305 13.5029 19.1305 12.6583 19.5528L12.4472 19.6583C12.1657 19.7991 11.8343 19.7991 11.5528 19.6583L11.3416 19.5528C10.497 19.1305 9.50292 19.1305 8.65833 19.5528L8.44719 19.6583C8.16566 19.7991 7.83429 19.7991 7.55276 19.6583L7.34162 19.5528C6.49703 19.1305 5.50292 19.1305 4.65833 19.5528L4.44719 19.6583C4.16566 19.7991 3.83429 19.7991 3.55276 19.6583L3.44719 19.6056C2.95321 19.3586 2.35254 19.5588 2.10555 20.0528C1.85856 20.5467 2.05878 21.1474 2.55276 21.3944L2.65833 21.4472Z" fill="#B6B2FF"/>
<path d="M3.86163 13.3253C2.55063 13.6998 1.78153 15.0558 2.13285 16.3732L2.96675 19.5004C3.12794 19.4949 3.29277 19.5284 3.44718 19.6056L3.55275 19.6584C3.83428 19.7991 4.16565 19.7991 4.44718 19.6584L4.65832 19.5528C5.50291 19.1305 6.49702 19.1305 7.34161 19.5528L7.55275 19.6584C7.83428 19.7991 8.16565 19.7991 8.44718 19.6584L8.65832 19.5528C9.50291 19.1305 10.497 19.1305 11.3416 19.5528L11.5528 19.6584C11.8343 19.7991 12.1657 19.7991 12.4472 19.6584L12.6583 19.5528C13.5029 19.1305 14.497 19.1305 15.3416 19.5528L15.5528 19.6584C15.8343 19.7991 16.1657 19.7991 16.4472 19.6584L16.6583 19.5528C17.5029 19.1305 18.497 19.1305 19.3416 19.5528L19.5528 19.6584C19.8343 19.7991 20.1657 19.7991 20.4472 19.6584L20.5528 19.6056C20.7072 19.5284 20.872 19.4948 21.0332 19.5004L21.8671 16.3732C22.2184 15.0558 21.4494 13.6998 20.1383 13.3253L12.8242 11.2355C12.2855 11.0816 11.7145 11.0816 11.1758 11.2355L3.86163 13.3253Z" fill="#6889FF"/>
</svg>
