<svg width="24" height="24" viewBox="0 0 24 24" fill="none" xmlns="http://www.w3.org/2000/svg">
<rect x="1.5" y="6.5" width="10" height="5" rx="2.5" fill="#B6B2FF"/>
<path d="M7.5 3.5C7.5 2.39543 8.39543 1.5 9.5 1.5C10.6046 1.5 11.5 2.39543 11.5 3.5V4.5C11.5 5.05228 11.0523 5.5 10.5 5.5H9.5C8.39543 5.5 7.5 4.60457 7.5 3.5Z" fill="#B6B2FF"/>
<rect x="22.5" y="17.5" width="10" height="5" rx="2.5" transform="rotate(180 22.5 17.5)" fill="#B6B2FF"/>
<path d="M16.5 20.5C16.5 21.6046 15.6046 22.5 14.5 22.5C13.3954 22.5 12.5 21.6046 12.5 20.5L12.5 19.5C12.5 18.9477 12.9477 18.5 13.5 18.5L14.5 18.5C15.6046 18.5 16.5 19.3954 16.5 20.5Z" fill="#B6B2FF"/>
<rect x="6.5" y="22.5" width="10" height="5" rx="2.5" transform="rotate(-90 6.5 22.5)" fill="#6889FF"/>
<path d="M3.5 15.5C2.94772 15.5 2.5 15.0523 2.5 14.5C2.5 13.9477 2.94772 13.5 3.5 13.5L4.5 13.5L4.5 14.5C4.5 15.0523 4.05228 15.5 3.5 15.5Z" fill="#6889FF" stroke="#6889FF" stroke-width="2" stroke-linecap="round" stroke-linejoin="round"/>
<rect x="17.5" y="1.5" width="10" height="5" rx="2.5" transform="rotate(90 17.5 1.5)" fill="#6889FF"/>
<path d="M20.5 8.5C21.0523 8.5 21.5 8.94772 21.5 9.5C21.5 10.0523 21.0523 10.5 20.5 10.5L19.5 10.5L19.5 9.5C19.5 8.94772 19.9477 8.5 20.5 8.5Z" fill="#6889FF" stroke="#6889FF" stroke-width="2" stroke-linecap="round" stroke-linejoin="round"/>
</svg>
