<svg width="24" height="24" viewBox="0 0 24 24" fill="none" xmlns="http://www.w3.org/2000/svg">
<path fill-rule="evenodd" clip-rule="evenodd" d="M8.51512 2.40398C8.90564 2.01345 9.53881 2.01345 9.92933 2.40398L12 4.47465L14.0707 2.40398C14.4612 2.01345 15.0944 2.01345 15.4849 2.40398C15.8754 2.7945 15.8754 3.42767 15.4849 3.81819L12.7071 6.59597C12.3166 6.98649 11.6834 6.98649 11.2929 6.59597L8.51512 3.81819C8.12459 3.42767 8.12459 2.7945 8.51512 2.40398ZM5.43208 4.184C5.96555 4.04106 6.51389 4.35764 6.65683 4.89111L7.67356 8.68563C7.74221 8.94181 7.70627 9.21476 7.57366 9.44445C7.44106 9.67413 7.22264 9.84173 6.96646 9.91037L3.17194 10.9271C2.63848 11.07 2.09014 10.7535 1.9472 10.22C1.80426 9.68653 2.12084 9.1382 2.6543 8.99526L5.48289 8.23734L4.72498 5.40875C4.58203 4.87528 4.89862 4.32695 5.43208 4.184ZM18.5679 4.184C19.1014 4.32695 19.418 4.87528 19.275 5.40875L18.5171 8.23734L21.3457 8.99526C21.8792 9.1382 22.1958 9.68653 22.0528 10.22C21.9099 10.7535 21.3615 11.07 20.8281 10.9271L17.0336 9.91037C16.5001 9.76743 16.1835 9.21909 16.3264 8.68563L17.3432 4.89111C17.4861 4.35764 18.0345 4.04106 18.5679 4.184ZM1.94716 13.78C2.09011 13.2465 2.63844 12.93 3.17191 13.0729L6.96642 14.0896C7.49989 14.2326 7.81647 14.7809 7.67353 15.3144L6.65679 19.1089C6.51385 19.6424 5.96552 19.9589 5.43205 19.816C4.89858 19.6731 4.582 19.1247 4.72494 18.5913L5.48286 15.7627L2.65427 15.0047C2.1208 14.8618 1.80422 14.3135 1.94716 13.78ZM22.0528 13.78C22.1958 14.3135 21.8792 14.8618 21.3457 15.0047L18.5171 15.7627L19.275 18.5913C19.418 19.1247 19.1014 19.6731 18.5679 19.816C18.0345 19.9589 17.4861 19.6424 17.3432 19.1089L16.3264 15.3144C16.1835 14.7809 16.5001 14.2326 17.0335 14.0896L20.8281 13.0729C21.3615 12.93 21.9099 13.2465 22.0528 13.78ZM12 19.5253L9.92933 21.596C9.53881 21.9865 8.90564 21.9865 8.51512 21.596C8.12459 21.2054 8.12459 20.5723 8.51512 20.1818L11.2929 17.404C11.6834 17.0135 12.3166 17.0135 12.7071 17.404L15.4849 20.1818C15.8754 20.5723 15.8754 21.2054 15.4849 21.596C15.0944 21.9865 14.4612 21.9865 14.0707 21.596L12 19.5253Z" fill="#B6B2FF"/>
<path fill-rule="evenodd" clip-rule="evenodd" d="M12 4.88892C12.5523 4.88892 13 5.33663 13 5.88892V10.268L16.7924 8.07848C17.2707 7.80233 17.8823 7.96621 18.1584 8.4445C18.4346 8.9228 18.2707 9.53439 17.7924 9.81053L14 12.0001L17.7924 14.1896C18.2707 14.4657 18.4346 15.0773 18.1584 15.5556C17.8823 16.0339 17.2707 16.1978 16.7924 15.9216L13 13.7321V18.1111C13 18.6634 12.5523 19.1111 12 19.1111C11.4477 19.1111 11 18.6634 11 18.1111V13.7321L7.20763 15.9216C6.72933 16.1978 6.11774 16.0339 5.8416 15.5556C5.56546 15.0773 5.72933 14.4657 6.20763 14.1896L10 12.0001L6.20766 9.81053C5.72937 9.53438 5.56549 8.92279 5.84163 8.4445C6.11778 7.96621 6.72937 7.80233 7.20766 8.07848L11 10.268V5.88892C11 5.33663 11.4477 4.88892 12 4.88892Z" fill="#6889FF"/>
</svg>
