<svg width="24" height="24" viewBox="0 0 24 24" fill="none" xmlns="http://www.w3.org/2000/svg">
<circle cx="12" cy="12" r="10" fill="#6889FF"/>
<path fill-rule="evenodd" clip-rule="evenodd" d="M6.97963 8.11083C6.44758 8.25895 6.13633 8.81033 6.28444 9.34238C6.43251 9.87429 6.98363 10.1855 7.51555 10.0377L7.51451 10.038C7.53598 10.0323 7.55752 10.0269 7.57911 10.0216C7.63034 10.0091 7.71097 9.99034 7.81881 9.96801C8.03459 9.92333 8.35868 9.86448 8.77377 9.81281C9.60486 9.70937 10.7948 9.63548 12.207 9.75903C13.6192 9.88258 14.7782 10.162 15.5787 10.4082C15.9785 10.5311 16.2875 10.6454 16.4922 10.7268C16.5887 10.7652 16.6849 10.8048 16.7791 10.8483L16.7803 10.8488C17.2782 11.0856 17.874 10.8748 18.1119 10.3772C18.3502 9.8789 18.1394 9.28185 17.6412 9.0436L17.6402 9.04314L17.6391 9.0426L17.6362 9.04126C17.5988 9.02365 17.5611 9.0067 17.5233 8.99008C17.4545 8.95987 17.3567 8.91831 17.2317 8.86856C16.9817 8.76909 16.6221 8.63662 16.1666 8.49653C15.2565 8.21662 13.9577 7.90456 12.3813 7.76664C10.8049 7.62873 9.47169 7.71051 8.52675 7.82813C8.05383 7.88699 7.6767 7.95501 7.41326 8.00956C7.28149 8.03684 7.178 8.06079 7.10503 8.0786C7.06486 8.0884 7.02476 8.09854 6.98487 8.10939L6.98187 8.11021C6.97833 8.11119 7.42623 9.71511 6.97963 8.11083Z" fill="#B6B2FF"/>
<path fill-rule="evenodd" clip-rule="evenodd" d="M7.75021 11.1773C7.21304 11.3056 6.8816 11.8451 7.00992 12.3823C7.138 12.9185 7.67571 13.2497 8.21188 13.1233L8.21731 13.1221C8.22393 13.1206 8.23633 13.1179 8.25436 13.1142C8.29042 13.1068 8.34897 13.0954 8.42889 13.0819C8.58875 13.0548 8.83387 13.0191 9.15525 12.9892C9.79818 12.9295 10.7448 12.8935 11.9238 12.9967C13.1027 13.0998 14.0287 13.2996 14.6515 13.4701C14.9628 13.5553 15.198 13.633 15.3507 13.6875C15.4652 13.7283 15.5333 13.756 15.5521 13.7638L15.5569 13.7658C16.063 13.9834 16.6504 13.7507 16.8696 13.2449C17.0893 12.7382 16.8565 12.1493 16.3498 11.9297L16.3478 11.9288L16.3452 11.9277C16.3146 11.9146 16.2837 11.9021 16.2528 11.8899C16.198 11.8682 16.1209 11.8387 16.0223 11.8036C15.8252 11.7333 15.5421 11.6403 15.1794 11.541C14.4542 11.3426 13.4096 11.119 12.0981 11.0043C10.7865 10.8895 9.71897 10.9283 8.97034 10.9978C8.59594 11.0326 8.30094 11.075 8.09463 11.11C7.99146 11.1275 7.91041 11.1431 7.85264 11.155C7.82006 11.1617 7.78754 11.1686 7.75515 11.1761L7.7524 11.1768L7.75123 11.1771C7.75123 11.1771 8.13808 12.801 7.75021 11.1773Z" fill="#B6B2FF"/>
<path fill-rule="evenodd" clip-rule="evenodd" d="M8.34968 14.2957C7.83606 14.4987 7.58424 15.0796 7.78724 15.5933C7.98884 16.1033 8.56317 16.3552 9.07416 16.1598C9.10872 16.1478 9.14378 16.1374 9.17902 16.1276C9.27239 16.1016 9.42753 16.0639 9.64324 16.0296C10.074 15.9611 10.75 15.9054 11.6622 15.9853C12.5745 16.0651 13.2306 16.2373 13.6429 16.3795C13.8494 16.4508 13.9956 16.5148 14.083 16.5566C14.116 16.5724 14.1488 16.5888 14.1807 16.6066C14.65 16.8877 15.2593 16.7394 15.5465 16.2721C15.8356 15.8015 15.6884 15.1857 15.2179 14.8966L15.2165 14.8957L15.215 14.8948L15.185 14.877C15.1701 14.8684 15.1514 14.8578 15.1287 14.8454C15.0834 14.8207 15.0225 14.789 14.9458 14.7523C14.7924 14.6789 14.576 14.5858 14.2952 14.4889C13.7331 14.295 12.9167 14.0874 11.8366 13.9929C10.7564 13.8984 9.91636 13.961 9.32912 14.0544C9.03583 14.1011 8.80651 14.1552 8.64266 14.2008C8.56075 14.2236 8.49526 14.2443 8.44637 14.2608C8.41495 14.2714 8.38372 14.2825 8.35279 14.2945L8.35119 14.2951C8.34892 14.296 8.96328 15.8482 8.34968 14.2957Z" fill="#B6B2FF"/>
</svg>
