<svg width="24" height="24" viewBox="0 0 24 24" fill="none" xmlns="http://www.w3.org/2000/svg">
<path d="M16.357 11.2572L16.9994 11.0002L17.0005 11.0002L17.7016 11.3508C18.5394 11.7697 19.4995 11.8751 20.4084 11.6479C20.6211 11.5947 20.8191 11.5146 21 11.4121V19C21 20.6569 19.6569 22 18 22H6C4.34315 22 3 20.6569 3 19V11.4121C3.18091 11.5146 3.37895 11.5947 3.59166 11.6479C4.50046 11.8751 5.46056 11.7697 6.29844 11.3508L6.99955 11.0002L7.00058 11.0002L7.64305 11.2572C8.83511 11.734 10.1649 11.734 11.357 11.2572L12 11L12.6431 11.2572C13.8351 11.734 15.1649 11.734 16.357 11.2572Z" fill="#6889FF"/>
<path d="M9 18C9 16.3431 10.3431 15 12 15C13.6569 15 15 16.3431 15 18V22H9V18Z" fill="#B6B2FF"/>
<path d="M16.9994 11.0002L16.357 11.2572C15.1649 11.734 13.8351 11.734 12.6431 11.2572L12 11L11.357 11.2572C10.1649 11.734 8.83511 11.734 7.64305 11.2572L7.00058 11.0002L6.99955 11.0002L6.29844 11.3508C5.46056 11.7697 4.50046 11.8751 3.59166 11.6479C2.21624 11.304 1.45439 9.83154 1.96825 8.5102L3.75619 3.91263C4.20463 2.75951 5.31497 1.99997 6.55221 1.99997H8.4799C8.49258 1.99973 8.5053 1.99972 8.51806 1.99997H15.4819C15.4946 1.99972 15.5073 1.99973 15.52 1.99997H17.4478C18.685 1.99997 19.7954 2.75952 20.2438 3.91263L22.0318 8.5102C22.5456 9.83155 21.7838 11.304 20.4084 11.6479C19.4995 11.8751 18.5394 11.7697 17.7016 11.3508L17.0005 11.0002L16.9994 11.0002Z" fill="#B6B2FF"/>
</svg>
