<svg width="24" height="24" viewBox="0 0 24 24" fill="none" xmlns="http://www.w3.org/2000/svg">
<path fill-rule="evenodd" clip-rule="evenodd" d="M12 20C16.4183 20 20 16.4183 20 12C20 7.58172 16.4183 4 12 4C7.58172 4 4 7.58172 4 12C4 16.4183 7.58172 20 12 20ZM12 22C17.5228 22 22 17.5228 22 12C22 6.47715 17.5228 2 12 2C6.47715 2 2 6.47715 2 12C2 17.5228 6.47715 22 12 22Z" fill="#6889FF"/>
<path fill-rule="evenodd" clip-rule="evenodd" d="M12 16C14.2091 16 16 14.2091 16 12C16 9.79086 14.2091 8 12 8C9.79086 8 8 9.79086 8 12C8 14.2091 9.79086 16 12 16ZM12 18C15.3137 18 18 15.3137 18 12C18 8.68629 15.3137 6 12 6C8.68629 6 6 8.68629 6 12C6 15.3137 8.68629 18 12 18Z" fill="#6889FF"/>
<path fill-rule="evenodd" clip-rule="evenodd" d="M12 14C13.1046 14 14 13.1046 14 12C14 10.8954 13.1046 10 12 10C10.8954 10 10 10.8954 10 12C10 13.1046 10.8954 14 12 14Z" fill="#6889FF"/>
<path d="M19.7822 2.4794C19.6655 1.66374 18.6677 1.33138 18.0851 1.91409L15.8534 4.14647C15.6309 4.36903 15.5261 4.68335 15.5706 4.9949L15.8231 6.76264L11.7929 10.7929C11.4024 11.1834 11.4024 11.8166 11.7929 12.2071C12.1834 12.5976 12.8166 12.5976 13.2071 12.2071L17.2374 8.17679L19.0049 8.4293C19.3165 8.47381 19.6309 8.36902 19.8535 8.14645L22.0857 5.91419C22.6684 5.3315 22.3358 4.33366 21.52 4.21714L19.9999 4.00001L19.7822 2.4794Z" fill="#B6B2FF"/>
</svg>
