<svg width="24" height="24" viewBox="0 0 24 24" fill="none" xmlns="http://www.w3.org/2000/svg">
<path d="M2 15C2 13.3431 3.34315 12 5 12H7V22H5C3.34315 22 2 20.6569 2 19V15Z" fill="#B6B2FF"/>
<path d="M22.3788 12.4876C22.6944 11.2256 21.7402 10.0029 20.4393 10.0024L14.5 10L15.049 6.70618C15.3145 5.11294 14.469 3.54176 12.9929 2.88576C12.0557 2.4692 11 3.15526 11 4.18092V5.94766C11 6.62887 10.7682 7.2898 10.3426 7.82174L7 12V22H17.6578C19.0344 22 20.2343 21.0632 20.5682 19.7278L22.3788 12.4876Z" fill="#6889FF"/>
</svg>
