<svg width="24" height="24" viewBox="0 0 24 24" fill="none" xmlns="http://www.w3.org/2000/svg">
<path d="M10.9988 10.1581L13.8272 12.9865L6.75613 20.0576C5.97508 20.8386 4.70875 20.8386 3.92771 20.0576C3.14666 19.2765 3.14666 18.0102 3.92771 17.2291L10.9988 10.1581Z" fill="#B6B2FF"/>
<path d="M16.8286 4.32833C17.3166 3.84032 17.1675 3.01825 16.4924 2.875C14.572 2.46754 12.4904 3.00961 10.9988 4.50123C8.65567 6.84437 8.65567 10.6434 10.9988 12.9865C13.342 15.3297 17.141 15.3297 19.4841 12.9865C20.9757 11.4949 21.5178 9.41331 21.1103 7.4929C20.9671 6.81778 20.145 6.66875 19.657 7.15675L18.0699 8.74387C17.2888 9.52492 16.0225 9.52492 15.2415 8.74387C14.4604 7.96282 14.4604 6.69649 15.2415 5.91544L16.8286 4.32833Z" fill="#6889FF"/>
</svg>
