<svg width="24" height="24" viewBox="0 0 24 24" fill="none" xmlns="http://www.w3.org/2000/svg">
<path d="M14 1C14.5523 1 15 1.44772 15 2H18C19.6569 2 21 3.34315 21 5V15C21 16.6569 19.6569 18 18 18H6C4.34315 18 3 16.6569 3 15V5C3 3.34315 4.34315 2 6 2H9C9 1.44772 9.44772 1 10 1H14Z" fill="#6889FF"/>
<circle cx="6" cy="15" r="1" fill="#B6B2FF"/>
<circle cx="18" cy="15" r="1" fill="#B6B2FF"/>
<path fill-rule="evenodd" clip-rule="evenodd" d="M8.23609 21C7.85731 21 7.51104 21.214 7.34165 21.5528L6.89447 22.4472C6.64749 22.9412 6.04682 23.1414 5.55284 22.8944C5.05885 22.6475 4.85862 22.0468 5.1056 21.5528L5.55278 20.6584C6.06095 19.642 7.09975 19 8.23609 19H15.764C16.9003 19 17.939 19.642 18.4472 20.6583L18.8945 21.5528C19.1415 22.0468 18.9412 22.6474 18.4473 22.8944C17.9533 23.1414 17.3526 22.9412 17.1056 22.4472L16.6584 21.5528C16.489 21.214 16.1427 21 15.764 21H8.23609Z" fill="#B6B2FF"/>
<path d="M5 5C5 4.44772 5.44772 4 6 4H18C18.5523 4 19 4.44772 19 5V9C19 9.55228 18.5523 10 18 10H6C5.44772 10 5 9.55228 5 9V5Z" fill="#B6B2FF"/>
</svg>
