<svg width="24" height="24" viewBox="0 0 24 24" fill="none" xmlns="http://www.w3.org/2000/svg">
<path d="M8.41586 7.00001H7C5.34315 7.00001 4 8.34316 4 10V14C4 15.6569 5.34315 17 7 17H9L13.683 21.0976C14.9762 22.2291 17 21.3108 17 19.5925V15.5841L8.41586 7.00001Z" fill="#B6B2FF"/>
<path d="M17 12.7557V4.40755C17 2.68923 14.9762 1.77087 13.683 2.90239L10.197 5.95268L17 12.7557Z" fill="#B6B2FF"/>
<path fill-rule="evenodd" clip-rule="evenodd" d="M2.29289 2.29289C2.68342 1.90237 3.31658 1.90237 3.70711 2.29289L21.7071 20.2929C22.0976 20.6834 22.0976 21.3166 21.7071 21.7071C21.3166 22.0976 20.6834 22.0976 20.2929 21.7071L2.29289 3.70711C1.90237 3.31658 1.90237 2.68342 2.29289 2.29289Z" fill="#6889FF"/>
</svg>
