<svg width="24" height="24" viewBox="0 0 24 24" fill="none" xmlns="http://www.w3.org/2000/svg">
<path d="M15.236 15.8042C15.4067 16.3295 15.9781 16.6252 16.459 16.3535C17.0796 16.003 17.6216 15.5218 18.0451 14.9389C18.6657 14.0847 19 13.0559 19 12C19 10.9441 18.6657 9.91532 18.0451 9.06109C17.6216 8.47822 17.0796 7.99704 16.459 7.64649C15.9781 7.37486 15.4067 7.67053 15.236 8.19579C15.0654 8.72104 15.369 9.27409 15.8096 9.60723C16.0438 9.7844 16.2522 9.99609 16.427 10.2367C16.7994 10.7492 17 11.3665 17 12C17 12.6336 16.7994 13.2508 16.427 13.7634C16.2522 14.0039 16.0438 14.2156 15.8096 14.3928C15.369 14.7259 15.0654 15.279 15.236 15.8042Z" fill="#B6B2FF"/>
<path d="M17.1631 18.6574C17.3338 19.1827 17.9016 19.4757 18.4015 19.2409C19.6179 18.6695 20.6759 17.7982 21.4721 16.7023C22.4652 15.3355 23 13.6894 23 12C23 10.3106 22.4652 8.6645 21.4721 7.29772C20.6759 6.20179 19.6179 5.33054 18.4015 4.75913C17.9016 4.52431 17.3338 4.81735 17.1631 5.34261C16.9925 5.86786 17.2854 6.42489 17.7751 6.68033C18.5934 7.10721 19.3063 7.71936 19.8541 8.47329C20.5989 9.49838 21 10.7329 21 12C21 13.2671 20.5989 14.5016 19.8541 15.5267C19.3063 16.2806 18.5934 16.8928 17.7751 17.3197C17.2854 17.5751 16.9925 18.1321 17.1631 18.6574Z" fill="#B6B2FF"/>
<path d="M14 19.5925V4.40754C14 2.68922 11.9762 1.77086 10.683 2.90238L6 7H4C2.34315 7 1 8.34315 1 10V14C1 15.6569 2.34315 17 4 17H6L10.683 21.0976C11.9762 22.2291 14 21.3108 14 19.5925Z" fill="#6889FF"/>
</svg>
