<svg width="24" height="24" viewBox="0 0 24 24" fill="none" xmlns="http://www.w3.org/2000/svg">
<mask id="path-1-inside-1_32_37553" fill="white">
<path d="M17.2361 15.8042C17.4067 16.3295 17.9782 16.6251 18.459 16.3535C19.0796 16.003 19.6216 15.5218 20.0451 14.9389C20.6657 14.0847 21 13.0559 21 12C21 10.9441 20.6657 9.91531 20.0451 9.06107C19.6216 8.47821 19.0796 7.99702 18.459 7.64647C17.9782 7.37485 17.4067 7.67052 17.2361 8.19577C17.0654 8.72103 17.3691 9.27408 17.8096 9.60721C18.0439 9.78439 18.2523 9.99608 18.4271 10.2366C18.7994 10.7492 19 11.3665 19 12C19 12.6335 18.7994 13.2508 18.4271 13.7634C18.2523 14.0039 18.0439 14.2156 17.8096 14.3928C17.3691 14.7259 17.0654 15.279 17.2361 15.8042Z"/>
</mask>
<path d="M17.2361 15.8042C17.4067 16.3295 17.9782 16.6251 18.459 16.3535C19.0796 16.003 19.6216 15.5218 20.0451 14.9389C20.6657 14.0847 21 13.0559 21 12C21 10.9441 20.6657 9.91531 20.0451 9.06107C19.6216 8.47821 19.0796 7.99702 18.459 7.64647C17.9782 7.37485 17.4067 7.67052 17.2361 8.19577C17.0654 8.72103 17.3691 9.27408 17.8096 9.60721C18.0439 9.78439 18.2523 9.99608 18.4271 10.2366C18.7994 10.7492 19 11.3665 19 12C19 12.6335 18.7994 13.2508 18.4271 13.7634C18.2523 14.0039 18.0439 14.2156 17.8096 14.3928C17.3691 14.7259 17.0654 15.279 17.2361 15.8042Z" stroke="#B6B2FF" stroke-width="4" mask="url(#path-1-inside-1_32_37553)"/>
<path d="M16 19.5925V4.40754C16 2.68922 13.9762 1.77086 12.683 2.90238L8 7H6C4.34315 7 3 8.34315 3 10V14C3 15.6569 4.34315 17 6 17H8L12.683 21.0976C13.9762 22.2291 16 21.3108 16 19.5925Z" fill="#6889FF"/>
</svg>
