<svg width="24" height="24" viewBox="0 0 24 24" fill="none" xmlns="http://www.w3.org/2000/svg">
<circle cx="12" cy="18" r="2" fill="#B6B2FF"/>
<path fill-rule="evenodd" clip-rule="evenodd" d="M13.5997 12.1838C13.0858 12.0636 12.5503 12 12 12C10.0641 12 8.31009 12.7872 7.04395 14.0566C6.65392 14.4476 6.65472 15.0807 7.04574 15.4708C7.43676 15.8608 8.06993 15.86 8.45996 15.469C9.36624 14.5604 10.6167 14 12 14C13.3833 14 14.6338 14.5604 15.54 15.469C15.9188 15.8487 16.5267 15.8604 16.9196 15.5038L13.5997 12.1838Z" fill="#B6B2FF"/>
<path fill-rule="evenodd" clip-rule="evenodd" d="M9.66447 8.24861C7.56653 8.70241 5.69105 9.75465 4.22721 11.2165C3.83642 11.6067 3.83599 12.2399 4.22625 12.6307C4.61651 13.0215 5.24967 13.0219 5.64046 12.6317C7.145 11.1292 9.17593 10.1576 11.4334 10.0175L9.66447 8.24861ZM14.6363 10.392C16.0592 10.8272 17.3322 11.6056 18.3596 12.6317C18.7504 13.0219 19.3836 13.0215 19.7738 12.6307C20.1641 12.2399 20.1637 11.6067 19.7729 11.2165C17.8379 9.28413 15.1836 8.06748 12.247 8.00272L14.6363 10.392Z" fill="#B6B2FF"/>
<path fill-rule="evenodd" clip-rule="evenodd" d="M6.46887 5.05301C4.55047 5.81449 2.82645 6.96012 1.39244 8.39441C1.00195 8.78497 1.00201 9.41813 1.39257 9.80862C1.78313 10.1991 2.4163 10.199 2.80678 9.80849C4.2533 8.36169 6.03797 7.25476 8.03226 6.6164L6.46887 5.05301ZM10.3482 6.10389C10.8891 6.03533 11.4404 6 12 6C15.5906 6 18.8396 7.45434 21.1933 9.80849C21.5838 10.199 22.217 10.1991 22.6075 9.80862C22.9981 9.41813 22.9981 8.78497 22.6077 8.39441C19.8942 5.68044 16.1424 4 12 4C10.8398 4 9.71026 4.13183 8.62556 4.38126L10.3482 6.10389Z" fill="#B6B2FF"/>
<path fill-rule="evenodd" clip-rule="evenodd" d="M2.29289 2.29289C2.68342 1.90237 3.31658 1.90237 3.70711 2.29289L21.7071 20.2929C22.0976 20.6834 22.0976 21.3166 21.7071 21.7071C21.3166 22.0976 20.6834 22.0976 20.2929 21.7071L2.29289 3.70711C1.90237 3.31658 1.90237 2.68342 2.29289 2.29289Z" fill="#6889FF"/>
</svg>
